<?xml version="1.0" encoding="UTF-8"?><svg id="a" xmlns="http://www.w3.org/2000/svg" viewBox="0 0 1024 1024"><path d="M543.81,710.4c-88.84,5.67-305.78,180.53-529.36,255.06,186.99-105.69,307.03-188.66,340.92-221.78-6.14,6.01-78.05,27.7-140.38,28.01,279.08-114.29,341.92-256.86,377.15-290.29-15.86-1.27-81.3,23.49-123.31,13.19,25.24-15.44,69.11-43.45,78.89-52.78-19.27-1.37-110.96-11.44-144.38-20.33,36.85-12.45,73.62-15.96,77.69-24.99-16.12-5.46-162.15-104.79-167.12-123.31,28,21.68,112.02,56.91,144.54,57.81-54.2-16.26-126.92-142.73-143.18-193.77,56.91,63.69,105.24,107.5,124.21,116.98-43.81-42.91-85.97-121.95-101.02-218.31,148.15,242.7,248.72,261.22,381.97,299.38,16.71-19.65,65.27-66.17,73.4-73.62-26.87-14.91-47.88-58.72-60.52-101.17,24.84,49.01,76.11,58.94,82.2,58.72-44.04-31.39-91.24-116.98-102.76-152.44,49.23,83.11,96.43,121.15,148.06,137.56,58.27,18.52,108.49,64.34,99,118.09,13.04,9.49,25.29,62.18-4.74,87.17,4.44-29.81-.38-29.51-21-19.87-31.62,305.78-142.13,304.86-390.25,320.69Z" fill="white"/></svg>
